<svg xmlns="http://www.w3.org/2000/svg" viewBox="0 0 529.51 46.15"><g id="Layer_2" data-name="Layer 2"><g id="Logo"><path d="M2.48,35.56c-.58,0-1.36,0-2.34,0-.09,0-.14-.09-.14-.27s.05-.27.14-.27a7.3,7.3,0,0,0,2.2-.23A1.4,1.4,0,0,0,3.26,34a5.89,5.89,0,0,0,.25-2V11.13a5.68,5.68,0,0,0-.25-2,1.5,1.5,0,0,0-.94-.88A7.23,7.23,0,0,0,.14,8C.05,8,0,7.93,0,7.75s.05-.27.14-.27l2.34,0c1.31.06,2.38.09,3.19.09s1.53,0,2.52-.14l1.46-.09c.62,0,1.35,0,2.19,0a11.71,11.71,0,0,1,7,1.89A6.72,6.72,0,0,1,21.47,15,7.87,7.87,0,0,1,20,19.86a9,9,0,0,1-3.73,3,11.58,11.58,0,0,1-4.66,1A8.38,8.38,0,0,1,9.5,23.6c-.09,0-.14-.08-.14-.23a.54.54,0,0,1,.07-.27c0-.09.09-.12.16-.09a6.39,6.39,0,0,0,1.57.18,5,5,0,0,0,4-1.94,8.37,8.37,0,0,0,1.62-5.53,8.3,8.3,0,0,0-1.66-5.51,5.7,5.7,0,0,0-4.59-2,4.45,4.45,0,0,0-1.65.23,1.34,1.34,0,0,0-.78.83,5.61,5.61,0,0,0-.23,1.91V31.78a4.76,4.76,0,0,0,.34,2.1,2,2,0,0,0,1.3.92,12.39,12.39,0,0,0,3,.27c.09,0,.14.09.14.27s-.05.27-.14.27c-1.23,0-2.19,0-2.88,0l-3.91,0ZM27.2,28.88a15.4,15.4,0,0,1-1.78-7.31,13.38,13.38,0,0,1,2.34-7.94,14.76,14.76,0,0,1,6-5A18.11,18.11,0,0,1,41.26,7a14.06,14.06,0,0,1,7.52,2,13.57,13.57,0,0,1,5,5.29,14.69,14.69,0,0,1,1.73,7,13.81,13.81,0,0,1-2.16,7.52,15.47,15.47,0,0,1-5.78,5.4,16.09,16.09,0,0,1-7.85,2,14.17,14.17,0,0,1-7.45-2A13.41,13.41,0,0,1,27.2,28.88Zm3-8.93a20.17,20.17,0,0,0,1.42,7.74,12.87,12.87,0,0,0,3.91,5.42,8.91,8.91,0,0,0,5.65,2,8.42,8.42,0,0,0,4.84-1.46,9.8,9.8,0,0,0,3.37-4.3,16.71,16.71,0,0,0,1.24-6.75,19.13,19.13,0,0,0-1.37-7.42A11.8,11.8,0,0,0,45.38,10a9.86,9.86,0,0,0-6-1.84,8,8,0,0,0-6.77,3.13Q30.24,14.41,30.24,20ZM62.75,34a1.41,1.41,0,0,1-.94.87,7.57,7.57,0,0,1-2.23.23c-.09,0-.14.09-.14.27s.05.27.14.27H79.11a.68.68,0,0,0,.54-.16.79.79,0,0,0,.13-.52,48.19,48.19,0,0,1,.45-6.25s0-.07-.11-.11a.43.43,0,0,0-.25-.07q-.18,0-.18.09Q78.07,34.44,72,34.44h-2.2a2.71,2.71,0,0,1-2-.59,3,3,0,0,1-.57-2.07V21.57h4.28q5,0,5,3.87,0,.09.27.09t.27-.09q0-.9-.09-2.34L77,21,77,17.07c0-.09-.08-.14-.25-.14s-.25.05-.25.14q0,3.33-5,3.33H67.27V11.22a2.51,2.51,0,0,1,.68-2,3.5,3.5,0,0,1,2.29-.59H72q5.17,0,6.26,5.13c0,.09.13.12.29.09s.25-.07.25-.13l-.09-5.85c0-.27-.15-.41-.45-.41H59.58c-.09,0-.14.09-.14.27s.05.27.14.27a7.38,7.38,0,0,1,2.2.25,1.5,1.5,0,0,1,1,.88,5.68,5.68,0,0,1,.25,2V32A6,6,0,0,1,62.75,34Zm23.51.47a9.42,9.42,0,0,0,3,1.21,16.22,16.22,0,0,0,3.89.5,11.81,11.81,0,0,0,5-1,8,8,0,0,0,3.37-2.82,7.19,7.19,0,0,0,1.19-4.09,6.57,6.57,0,0,0-.92-3.53,9.36,9.36,0,0,0-2.25-2.55c-.88-.68-2.09-1.51-3.62-2.47s-2.53-1.62-3.35-2.25a8.6,8.6,0,0,1-2.07-2.23,5.25,5.25,0,0,1-.84-2.95,4.24,4.24,0,0,1,1.2-3.19,4.37,4.37,0,0,1,3.21-1.17,5.11,5.11,0,0,1,4.53,2.23,19.9,19.9,0,0,1,2.4,5c0,.12.13.16.3.11s.24-.11.24-.2l-.13-6.12a.94.94,0,0,0-.14-.52,1,1,0,0,0-.54-.34,13.23,13.23,0,0,0-2.56-.74A16.68,16.68,0,0,0,95.13,7a12.28,12.28,0,0,0-4.39.79,7.76,7.76,0,0,0-3.4,2.4,6.15,6.15,0,0,0-1.3,4,6.27,6.27,0,0,0,.85,3.31A8.89,8.89,0,0,0,89,19.84c.81.64,1.94,1.43,3.38,2.36S95,24,95.83,24.63A8.77,8.77,0,0,1,98,27.1a6.75,6.75,0,0,1,.87,3.47,4.28,4.28,0,0,1-1.3,3.53,5,5,0,0,1-3.24,1.06,6,6,0,0,1-4.88-2.39A23.68,23.68,0,0,1,86,26.65a.22.22,0,0,0-.27-.15c-.15,0-.23.08-.23.2v0l.27,6.84A1.07,1.07,0,0,0,86.26,34.44Zm24-.47a1.49,1.49,0,0,1-1,.87,7.57,7.57,0,0,1-2.23.23c-.09,0-.14.09-.14.27s.05.27.14.27c1,0,1.77,0,2.34,0l3.24,0,3.33,0c.57,0,1.33,0,2.29,0,.09,0,.14-.09.14-.27s0-.27-.14-.27a7.45,7.45,0,0,1-2.22-.23,1.35,1.35,0,0,1-.93-.85,6.63,6.63,0,0,1-.22-2V11.22a5.85,5.85,0,0,1,.25-2,1.57,1.57,0,0,1,.94-.93A6.49,6.49,0,0,1,118.3,8c.09,0,.14-.09.14-.27s0-.27-.14-.27l-2.25,0c-1.32.06-2.44.09-3.37.09s-1.92,0-3.24-.09l-2.34,0c-.09,0-.14.09-.14.27s.05.27.14.27a7.43,7.43,0,0,1,2.23.25,1.58,1.58,0,0,1,1,.88,5.36,5.36,0,0,1,.27,2V32A5.62,5.62,0,0,1,110.29,34Zm-2-28.87.09,0c1.71-.75,3.34-1.41,4.88-2a48.92,48.92,0,0,1,5.11-1.51c.33-.06.19-.24-.43-.54a13.73,13.73,0,0,0-2.14-.81q-1.22-.36-1.44-.18l-2.25,1.71a38.59,38.59,0,0,1-4,2.83.27.27,0,0,0-.09.3A.23.23,0,0,0,108.27,5.1Zm44.32,30.24c0,.18-.07.27-.22.27-.57,0-1.49,0-2.75-.09s-2.17-.09-2.74-.09c-.75,0-1.64,0-2.66.09s-1.81.09-2.38.09q-.18,0-.18-.27t.18-.27a4.73,4.73,0,0,0,1.91-.29,1,1,0,0,0,.61-1,6.59,6.59,0,0,0-.77-2.3l-4.86-9.85h-8.14l-3.47,7.78a6.19,6.19,0,0,0-.58,2.43,2.76,2.76,0,0,0,1.12,2.39,5.32,5.32,0,0,0,3.15.81c.15,0,.23.09.23.27s-.08.27-.23.27q-.81,0-2.34-.09-1.71-.09-3-.09c-.81,0-1.75,0-2.83.09s-1.76.09-2.39.09c-.15,0-.22-.09-.22-.27s.07-.27.22-.27a4.08,4.08,0,0,0,2.12-.5,5.21,5.21,0,0,0,1.66-1.77A32.29,32.29,0,0,0,126,29l9.67-21.77c.06-.1.2-.14.41-.14s.33,0,.36.14l11,22.22a21.32,21.32,0,0,0,2.64,4.44,3,3,0,0,0,2.27,1.19C152.52,35.07,152.59,35.16,152.59,35.34Zm-14.4-14.81L134.46,13l-3.38,7.55Zm52.79,15-3.2,0c-.57,0-1.36,0-2.38,0q-.09,0-.09-.27t.09-.27a7.45,7.45,0,0,0,2.22-.23,1.48,1.48,0,0,0,1-.87,5.62,5.62,0,0,0,.27-2V11.13a6,6,0,0,0-.24-2,1.53,1.53,0,0,0-1-.88A7.46,7.46,0,0,0,185.44,8q-.09,0-.09-.27t.09-.27l2.39,0q2,.09,3.15.09c1.2,0,2.41,0,3.64-.14,1.5-.05,2.51-.09,3-.09a17.89,17.89,0,0,1,8.14,1.8,13.59,13.59,0,0,1,5.51,4.91,12.75,12.75,0,0,1,2,7,14.62,14.62,0,0,1-2,7.72A13.91,13.91,0,0,1,205.78,34a15.76,15.76,0,0,1-7.51,1.82c-.93,0-2,0-3.24-.14l-1.71-.09C192.63,35.54,191.85,35.52,191,35.52Zm2.2-4.05a3.24,3.24,0,0,0,.95,2.63c.63.53,1.86.79,3.69.79a10.29,10.29,0,0,0,5.51-1.49A9.92,9.92,0,0,0,207.09,29a16.43,16.43,0,0,0,1.35-7,18.14,18.14,0,0,0-1.29-7,11.66,11.66,0,0,0-3.62-5,8.57,8.57,0,0,0-5.44-1.83,14.57,14.57,0,0,0-2.93.23,2.55,2.55,0,0,0-1.51.83,3.08,3.08,0,0,0-.47,1.87ZM218.61,5.1l.09,0c1.71-.75,3.33-1.41,4.88-2a48.21,48.21,0,0,1,5.11-1.51c.33-.06.18-.24-.43-.54a13.73,13.73,0,0,0-2.14-.81q-1.22-.36-1.44-.18l-2.25,1.71a38.59,38.59,0,0,1-4,2.83.27.27,0,0,0-.09.3A.23.23,0,0,0,218.61,5.1Zm2,28.87a1.49,1.49,0,0,1-1,.87,7.57,7.57,0,0,1-2.23.23c-.09,0-.14.09-.14.27s0,.27.14.27c1,0,1.77,0,2.34,0l3.24,0,3.33,0c.57,0,1.33,0,2.29,0,.09,0,.14-.09.14-.27s-.05-.27-.14-.27a7.45,7.45,0,0,1-2.22-.23,1.35,1.35,0,0,1-.93-.85,6.63,6.63,0,0,1-.22-2V11.22a5.85,5.85,0,0,1,.25-2,1.55,1.55,0,0,1,.94-.93A6.45,6.45,0,0,1,228.64,8c.09,0,.14-.09.14-.27s-.05-.27-.14-.27l-2.25,0c-1.32.06-2.44.09-3.37.09s-1.92,0-3.24-.09l-2.34,0c-.09,0-.14.09-.14.27s0,.27.14.27a7.43,7.43,0,0,1,2.23.25,1.58,1.58,0,0,1,1,.88,5.36,5.36,0,0,1,.27,2V32A5.62,5.62,0,0,1,220.63,34Zm9.77,1.37c0-.18.07-.27.22-.27a4.08,4.08,0,0,0,2.12-.5,5.21,5.21,0,0,0,1.66-1.77A32.29,32.29,0,0,0,236.34,29L246,7.22c.06-.1.2-.14.41-.14s.33,0,.36.14l11,22.22a21.86,21.86,0,0,0,2.63,4.44,3.08,3.08,0,0,0,2.28,1.19c.15,0,.22.09.22.27s-.07.27-.22.27c-.57,0-1.49,0-2.75-.09s-2.17-.09-2.74-.09c-.75,0-1.64,0-2.66.09s-1.81.09-2.38.09q-.18,0-.18-.27t.18-.27a4.76,4.76,0,0,0,1.91-.29,1,1,0,0,0,.61-1,6.59,6.59,0,0,0-.77-2.3l-4.86-9.85h-8.14l-3.47,7.78a6.19,6.19,0,0,0-.58,2.43A2.76,2.76,0,0,0,238,34.26a5.32,5.32,0,0,0,3.15.81c.15,0,.23.09.23.27s-.08.27-.23.27q-.81,0-2.34-.09-1.71-.09-3-.09c-.81,0-1.75,0-2.83.09s-1.76.09-2.39.09C230.47,35.61,230.4,35.52,230.4,35.34Zm11-14.81h7.11L244.8,13Zm25.25,13.91a9.35,9.35,0,0,0,3,1.21,16.3,16.3,0,0,0,3.9.5,11.77,11.77,0,0,0,5-1,8,8,0,0,0,3.37-2.82,7.2,7.2,0,0,0,1.2-4.09,6.57,6.57,0,0,0-.93-3.53A9.36,9.36,0,0,0,280,22.15c-.88-.68-2.09-1.51-3.62-2.47s-2.53-1.62-3.35-2.25a8.6,8.6,0,0,1-2.07-2.23,5.25,5.25,0,0,1-.83-2.95,4.24,4.24,0,0,1,1.19-3.19,4.39,4.39,0,0,1,3.22-1.17A5.09,5.09,0,0,1,279,10.12a19.93,19.93,0,0,1,2.41,5c0,.12.12.16.29.11s.25-.11.25-.2l-.14-6.12a.93.93,0,0,0-.13-.52,1,1,0,0,0-.54-.34,13.35,13.35,0,0,0-2.57-.74A16.68,16.68,0,0,0,275.53,7a12.28,12.28,0,0,0-4.39.79,7.73,7.73,0,0,0-3.39,2.4,6.15,6.15,0,0,0-1.31,4,6.28,6.28,0,0,0,.86,3.31,8.89,8.89,0,0,0,2.07,2.39c.81.64,1.93,1.43,3.37,2.36s2.63,1.77,3.49,2.43a8.77,8.77,0,0,1,2.16,2.47,6.75,6.75,0,0,1,.88,3.47A4.29,4.29,0,0,1,278,34.1a5,5,0,0,1-3.24,1.06,6,6,0,0,1-4.88-2.39,23.68,23.68,0,0,1-3.4-6.12.22.22,0,0,0-.27-.15c-.15,0-.22.08-.22.2v0l.27,6.84A1.07,1.07,0,0,0,266.67,34.44ZM297.31,8a4.37,4.37,0,0,1,2.09.54,9.73,9.73,0,0,1,2.28,1.89V30.16a5.57,5.57,0,0,1-1.06,3.65,3.69,3.69,0,0,1-3,1.26c-.09,0-.14.09-.14.27s.05.27.14.27c.9,0,1.59,0,2.07,0l2.65,0,2.39,0c.42,0,1,0,1.84,0q.09,0,.09-.27t-.09-.27a3.21,3.21,0,0,1-2.74-1.26,6,6,0,0,1-.95-3.65V11.85L324,36.37a.33.33,0,0,0,.31.05c.15,0,.23-.09.23-.18V13a5.9,5.9,0,0,1,1-3.67A3.31,3.31,0,0,1,328.32,8q.09,0,.09-.27t-.09-.27l-2,0q-1.53.09-2.43.09c-.63,0-1.43,0-2.39-.09l-1.84,0q-.09,0-.09.27t.09.27a3.15,3.15,0,0,1,2.7,1.29,6.1,6.1,0,0,1,.94,3.67V28.9L307.17,9.82c-.24-.26-.62-.74-1.13-1.43a5,5,0,0,0-.54-.73.78.78,0,0,0-.54-.18c-.51,0-.94,0-1.3,0l-2.88,0c-.72,0-1.28,0-1.67,0l-1.8,0q-.09,0-.09.27T297.31,8Zm33.08,0a7.19,7.19,0,0,1,2.18.25,1.6,1.6,0,0,1,1,.88,5.36,5.36,0,0,1,.27,2V25.62a11,11,0,0,0,1.41,5.65,9.49,9.49,0,0,0,4,3.69,13,13,0,0,0,5.85,1.28,12.31,12.31,0,0,0,5.78-1.31,9.35,9.35,0,0,0,3.87-3.71,11.26,11.26,0,0,0,1.37-5.65V13a6,6,0,0,1,1-3.65A3.19,3.19,0,0,1,359.77,8q.09,0,.09-.27t-.09-.27l-2,0q-1.62.09-2.43.09-1,0-2.7-.09l-2.07,0q-.09,0-.09.27t.09.27a3.7,3.7,0,0,1,3,1.31A5.69,5.69,0,0,1,354.69,13V25.62a9.53,9.53,0,0,1-2.16,6.68A8.74,8.74,0,0,1,340.31,32q-2.24-2.62-2.23-8V11.22a5.52,5.52,0,0,1,.27-2,1.65,1.65,0,0,1,1-.93A6.45,6.45,0,0,1,341.5,8c.09,0,.14-.09.14-.27s-.05-.27-.14-.27l-2.25,0q-2,.09-3.33.09c-.81,0-1.87,0-3.19-.09l-2.34,0c-.09,0-.14.09-.14.27S330.3,8,330.39,8Zm31.9,27.32c0-.18,0-.27.14-.27a7,7,0,0,0,2.16-.25,1.64,1.64,0,0,0,1-.88,5.09,5.09,0,0,0,.29-2V11.13a5.15,5.15,0,0,0-.29-2,1.69,1.69,0,0,0-1-.9A7,7,0,0,0,362.47,8q-.09,0-.09-.27t.09-.27l2.34,0c1.32.06,2.39.09,3.2.09s1.72,0,2.65-.14l1.19-.09c.47,0,1,0,1.6,0a10.36,10.36,0,0,1,6.14,1.55,5,5,0,0,1,2.14,4.3,6,6,0,0,1-1.42,3.87,9.14,9.14,0,0,1-4,2.74,9.94,9.94,0,0,1,5.9,2.48,6.78,6.78,0,0,1,2.2,5.13,7.48,7.48,0,0,1-1.28,4.25,8.81,8.81,0,0,1-3.56,3,11.49,11.49,0,0,1-5.06,1.1c-.87,0-1.87,0-3-.14L370,35.56c-.6,0-1.27,0-2,0l-3.24,0c-.57,0-1.35,0-2.34,0C362.34,35.61,362.29,35.52,362.29,35.34Zm7.92-15.57,1.89,0a4.76,4.76,0,0,0,4-1.73,7.07,7.07,0,0,0,1.35-4.48,5.85,5.85,0,0,0-1.22-4,4.48,4.48,0,0,0-3.55-1.39,2.6,2.6,0,0,0-2,.58,3.82,3.82,0,0,0-.52,2.39Zm0,12.19a3.88,3.88,0,0,0,.27,1.62,1.75,1.75,0,0,0,1,.88,6.65,6.65,0,0,0,2.29.29q6.07,0,6.08-6.25A8.16,8.16,0,0,0,378.11,23a6.49,6.49,0,0,0-5.2-2.07q-1.62,0-2.7.09Zm21.17,2a1.41,1.41,0,0,1-.94.87,7.57,7.57,0,0,1-2.23.23q-.09,0-.09.27t.09.27h21.06a.68.68,0,0,0,.54-.16.79.79,0,0,0,.13-.52q0-2.79.41-7c0-.09-.08-.14-.22-.15s-.25,0-.28.11a8.45,8.45,0,0,1-2.92,4.79,8.3,8.3,0,0,1-5.4,1.78h-2.7a7.07,7.07,0,0,1-1.89-.18,1.17,1.17,0,0,1-.79-.72,5.65,5.65,0,0,1-.2-1.76V11.18a5.91,5.91,0,0,1,.25-2,1.5,1.5,0,0,1,.94-.9A7.23,7.23,0,0,1,399.32,8c.09,0,.14-.09.14-.27s0-.27-.14-.27l-2.25,0c-1.32.06-2.42.09-3.33.09s-1.92,0-3.23-.09l-2.3,0q-.09,0-.09.27t.09.27a7.34,7.34,0,0,1,2.2.25,1.48,1.48,0,0,1,1,.88,5.68,5.68,0,0,1,.25,2V32A6,6,0,0,1,391.38,34Zm19.42,1.37c0-.18.07-.27.22-.27a4.08,4.08,0,0,0,2.12-.5,5.22,5.22,0,0,0,1.67-1.77A32.52,32.52,0,0,0,416.74,29l9.67-21.77c.06-.1.2-.14.41-.14s.33,0,.36.14l11,22.22a21.32,21.32,0,0,0,2.64,4.44,3,3,0,0,0,2.27,1.19c.15,0,.22.09.22.27s-.07.27-.22.27c-.57,0-1.49,0-2.75-.09s-2.17-.09-2.74-.09c-.75,0-1.64,0-2.66.09s-1.81.09-2.38.09q-.18,0-.18-.27t.18-.27a4.73,4.73,0,0,0,1.91-.29,1,1,0,0,0,.61-1,6.59,6.59,0,0,0-.77-2.3l-4.85-9.85h-8.15l-3.47,7.78a6.19,6.19,0,0,0-.58,2.43,2.76,2.76,0,0,0,1.12,2.39,5.33,5.33,0,0,0,3.16.81c.14,0,.22.09.22.27s-.08.27-.22.27c-.54,0-1.33,0-2.35-.09s-2.13-.09-3-.09-1.75,0-2.83.09-1.76.09-2.39.09C410.87,35.61,410.8,35.52,410.8,35.34Zm11-14.81h7.12L425.2,13Zm22.64,14.81q0-.27.09-.27a7.57,7.57,0,0,0,2.23-.23,1.49,1.49,0,0,0,1-.87,5.37,5.37,0,0,0,.28-2V11.13a5.93,5.93,0,0,0-.25-2,1.53,1.53,0,0,0-1-.88A7.43,7.43,0,0,0,444.6,8c-.07,0-.1-.09-.1-.27s0-.27.1-.27l2.38,0q2,.09,3.15.09c1.2,0,2.41,0,3.64-.14,1.5-.05,2.51-.09,3-.09a18,18,0,0,1,8.15,1.8,13.72,13.72,0,0,1,5.51,4.91,12.83,12.83,0,0,1,1.95,7,14.62,14.62,0,0,1-2,7.72A14,14,0,0,1,464.94,34a15.83,15.83,0,0,1-7.52,1.82c-.93,0-2,0-3.24-.14l-1.71-.09c-.69,0-1.47,0-2.34,0l-3.19,0c-.58,0-1.37,0-2.39,0Q444.46,35.61,444.46,35.34Zm7.87-3.87a3.24,3.24,0,0,0,.95,2.63c.63.53,1.86.79,3.69.79a10.27,10.27,0,0,0,5.51-1.49A9.86,9.86,0,0,0,466.24,29a16.43,16.43,0,0,0,1.35-7,18.33,18.33,0,0,0-1.28-7,11.83,11.83,0,0,0-3.62-5,8.62,8.62,0,0,0-5.45-1.83,14.57,14.57,0,0,0-2.93.23,2.49,2.49,0,0,0-1.5.83,3,3,0,0,0-.48,1.87Zm26.26-2.59a15.4,15.4,0,0,1-1.78-7.31,13.38,13.38,0,0,1,2.34-7.94,14.76,14.76,0,0,1,6-5A18.11,18.11,0,0,1,492.65,7a14.06,14.06,0,0,1,7.52,2,13.57,13.57,0,0,1,5,5.29,14.69,14.69,0,0,1,1.73,7,13.89,13.89,0,0,1-2.15,7.52,15.58,15.58,0,0,1-5.79,5.4,16.09,16.09,0,0,1-7.85,2,14.17,14.17,0,0,1-7.45-2A13.41,13.41,0,0,1,478.59,28.88Zm3-8.93a20.17,20.17,0,0,0,1.42,7.74A12.87,12.87,0,0,0,487,33.11a8.91,8.91,0,0,0,5.65,2,8.42,8.42,0,0,0,4.84-1.46,9.8,9.8,0,0,0,3.37-4.3,16.71,16.71,0,0,0,1.24-6.75,19.13,19.13,0,0,0-1.37-7.42A11.8,11.8,0,0,0,496.77,10a9.86,9.86,0,0,0-6-1.84A8,8,0,0,0,484,11.29Q481.63,14.41,481.63,20Zm47,4.75a9.71,9.71,0,0,0-2.25-2.55c-.89-.68-2.1-1.51-3.63-2.47s-2.52-1.62-3.35-2.25a9,9,0,0,1-2.07-2.23,5.33,5.33,0,0,1-.83-2.95,4.28,4.28,0,0,1,1.19-3.19,4.41,4.41,0,0,1,3.22-1.17,5.08,5.08,0,0,1,4.52,2.23,19.59,19.59,0,0,1,2.41,5c0,.12.13.16.29.11s.25-.11.25-.2l-.14-6.12a.93.93,0,0,0-.13-.52,1,1,0,0,0-.54-.34A13.35,13.35,0,0,0,525,7.28,16.68,16.68,0,0,0,521.9,7a12.19,12.19,0,0,0-4.38.79,7.71,7.71,0,0,0-3.4,2.4,6.15,6.15,0,0,0-1.31,4,6.28,6.28,0,0,0,.86,3.31,8.89,8.89,0,0,0,2.07,2.39c.81.64,1.93,1.43,3.37,2.36s2.64,1.77,3.49,2.43a8.46,8.46,0,0,1,2.16,2.47,6.66,6.66,0,0,1,.88,3.47,4.29,4.29,0,0,1-1.31,3.53,5,5,0,0,1-3.24,1.06,6,6,0,0,1-4.88-2.39,24,24,0,0,1-3.4-6.12.22.22,0,0,0-.27-.15c-.15,0-.22.08-.22.2v0l.27,6.84a1.07,1.07,0,0,0,.45.86,9.32,9.32,0,0,0,3,1.21,16.16,16.16,0,0,0,3.89.5,11.73,11.73,0,0,0,5-1,8,8,0,0,0,3.38-2.82,7.27,7.27,0,0,0,1.19-4.09A6.66,6.66,0,0,0,528.59,24.7ZM174.19,41.93s0,0-.09,0-.09,0-.09,0a3.54,3.54,0,0,1-.09.94.63.63,0,0,1-.31.39,1.72,1.72,0,0,1-.7.11h-6.85a1.37,1.37,0,0,1-.77-.15.69.69,0,0,1-.19-.57,1.73,1.73,0,0,1,.64-1.46,2.89,2.89,0,0,1,1.83-.5,3.17,3.17,0,0,1,1.83.45,1.38,1.38,0,0,1,.65,1.15,2,2,0,0,1-.07.51s0,0,0,.05a.13.13,0,0,0,.08,0c.05,0,.08,0,.08,0a2.81,2.81,0,0,0,.08-.7,3.82,3.82,0,0,0-.33-1.55,3,3,0,0,0-1-1.24,2.55,2.55,0,0,0-1.57-.48,2.27,2.27,0,0,0-2,.88,4.13,4.13,0,0,0-.63,2.42c0,.26,0,.49,0,.69s0,.37,0,.5c0,.33,0,.61,0,.85s0,.64,0,1.1v.79s0,0,.09,0,.09,0,.09,0a2.31,2.31,0,0,1,.08-.69.51.51,0,0,1,.29-.3A2.24,2.24,0,0,1,166,45H173a2.27,2.27,0,0,1,.67.07.46.46,0,0,1,.29.29,2.34,2.34,0,0,1,.08.7s0,0,.09,0,.09,0,.09,0c0-.34,0-.61,0-.81l0-1.09,0-1.31C174.18,42.66,174.19,42.34,174.19,41.93Zm0-13.44c0,.44,0,.76,0,1s0,.55,0,.91,0,.61,0,.81c0,0,0,.06-.09.06s-.09,0-.09-.06a1.26,1.26,0,0,0-.09-.56.29.29,0,0,0-.29-.18,2.48,2.48,0,0,0-.86.31l-3.07,1.56V35L172.06,36a2,2,0,0,0,.8.2,1,1,0,0,0,.84-.39,1.59,1.59,0,0,0,.31-1c0-.06,0-.08.09-.08s.09,0,.09.08,0,.44,0,.77,0,.72,0,1,0,.59,0,1,0,.61,0,.83c0,0,0,.06-.09.06s-.09,0-.09-.06a1.31,1.31,0,0,0-.18-.71,1.89,1.89,0,0,0-.61-.57,12.61,12.61,0,0,0-1.32-.68l-7.15-3.25a.14.14,0,0,1-.05-.13c0-.08,0-.13.05-.14l7.38-3.75a7.77,7.77,0,0,0,1.47-.87,1,1,0,0,0,.41-.72s0-.07.09-.07.09,0,.09.07C174.19,27.76,174.18,28.07,174.15,28.49Zm-4.87,4-2.37,1.2,2.37,1.06Zm4.87-25.22c0,.44,0,.76,0,1s0,.55,0,.91,0,.61,0,.81c0,0,0,.06-.09.06S174,10,174,10a1.26,1.26,0,0,0-.09-.56.28.28,0,0,0-.29-.17,2.4,2.4,0,0,0-.86.3l-3.07,1.56v2.67l2.36,1.06a2,2,0,0,0,.8.2,1,1,0,0,0,.84-.39,1.59,1.59,0,0,0,.31-1s0-.08.09-.08a.08.08,0,0,1,.09.08c0,.18,0,.44,0,.78s0,.71,0,1,0,.59,0,1,0,.44,0,.61h0v2.67c0,.22-.42.63-1.24,1.23s-2,1.32-3.46,2.17a2.87,2.87,0,0,1,0,.35c0,.39,0,.66,0,.82H173a2.26,2.26,0,0,0,.68-.07.44.44,0,0,0,.28-.3,2.22,2.22,0,0,0,.08-.69s0,0,.09,0,.09,0,.09,0c0,.33,0,.59,0,.78l0,1.14,0,1.09c0,.2,0,.47,0,.81,0,0,0,.05-.09.05S174,27,174,27a2.34,2.34,0,0,0-.08-.7.5.5,0,0,0-.29-.3,2.21,2.21,0,0,0-.67-.08H166a2.18,2.18,0,0,0-.66.08.51.51,0,0,0-.29.3A2.31,2.31,0,0,0,165,27s0,0-.09,0-.09,0-.09,0v-.8c0-.46,0-.82,0-1.09s0-.61,0-1c0-.11,0-.26,0-.43s0-.38,0-.62a3.81,3.81,0,0,1,.5-2.14,1.57,1.57,0,0,1,1.4-.76,2.34,2.34,0,0,1,1.32.42,3.26,3.26,0,0,1,1,1.1c1.26-.8,2.25-1.48,3-2a8.62,8.62,0,0,0,1.55-1.46,2.07,2.07,0,0,0,.47-1.12,1.28,1.28,0,0,0-.16-.61,1.89,1.89,0,0,0-.61-.57,11.14,11.14,0,0,0-1.32-.67L164.75,12a.14.14,0,0,1-.05-.13c0-.08,0-.13.05-.14l7.38-3.75a7.77,7.77,0,0,0,1.47-.87,1,1,0,0,0,.41-.72s0-.07.09-.07.09,0,.09.07C174.19,6.55,174.18,6.86,174.15,7.28Zm-5,16a1.84,1.84,0,0,0-.16-.85,1,1,0,0,0-.57-.46,3.45,3.45,0,0,0-1.14-.14,2.86,2.86,0,0,0-1.69.36,1.2,1.2,0,0,0-.47,1,.92.92,0,0,0,.23.72,1.07,1.07,0,0,0,.75.21h3A5.51,5.51,0,0,0,169.11,23.33Zm.17-12-2.37,1.2,2.37,1.06ZM.19,44.61H152v-2H.19Zm188,0h340v-2h-340Z"/></g></g></svg>