<?xml version="1.0" encoding="utf-8"?>
<!-- Generator: Adobe Illustrator 24.2.0, SVG Export Plug-In . SVG Version: 6.00 Build 0)  -->
<svg version="1.1" id="Capa_1" xmlns="http://www.w3.org/2000/svg" xmlns:xlink="http://www.w3.org/1999/xlink" x="0px" y="0px"
	 viewBox="0 0 187.09 84.93" style="enable-background:new 0 0 187.09 84.93;" xml:space="preserve">
<style type="text/css">
	.st0{fill:#FFFFFF;}
	.st1{fill:none;stroke:#000000;stroke-width:2;stroke-miterlimit:10;}
</style>
<g>
	<g>
		<rect x="-30.62" y="-6.53" class="st0" width="244" height="98"/>
	</g>
</g>
<g>
	<g>
		<path d="M15.13,36.73c0.23,0.44,0.66,0.74,1.31,0.92c0.65,0.18,1.66,0.27,3.04,0.27c0.09,0,0.13,0.09,0.13,0.27
			c0,0.18-0.04,0.27-0.13,0.27c-1.23,0-2.19-0.01-2.88-0.04l-3.92-0.04l-3.24,0.04c-0.57,0.03-1.35,0.04-2.34,0.04
			c-0.09,0-0.14-0.09-0.14-0.27c0-0.18,0.05-0.27,0.14-0.27c1.02,0,1.75-0.07,2.21-0.22c0.45-0.15,0.76-0.43,0.92-0.86
			c0.16-0.42,0.25-1.09,0.25-2.02V13.99c0-0.9-0.08-1.56-0.25-1.98c-0.17-0.42-0.48-0.71-0.94-0.88c-0.47-0.16-1.19-0.25-2.18-0.25
			c-0.09,0-0.14-0.09-0.14-0.27c0-0.18,0.05-0.27,0.14-0.27l2.34,0.04c1.32,0.06,2.39,0.09,3.2,0.09c0.69,0,1.53-0.04,2.52-0.13
			c0.36-0.03,0.85-0.06,1.46-0.09c0.61-0.03,1.34-0.04,2.18-0.04c2.97,0,5.32,0.63,7.04,1.89c1.72,1.26,2.59,3.2,2.59,5.8
			c0,1.89-0.49,3.5-1.46,4.82c-0.98,1.32-2.22,2.31-3.74,2.97c-1.52,0.66-3.07,0.99-4.66,0.99c-0.84,0-1.55-0.07-2.12-0.22
			c-0.09,0-0.13-0.08-0.13-0.23c0-0.09,0.02-0.18,0.07-0.27s0.1-0.12,0.16-0.09c0.48,0.12,1,0.18,1.57,0.18
			c1.56,0,2.88-0.64,3.96-1.94c1.08-1.29,1.62-3.13,1.62-5.53c0-2.37-0.56-4.21-1.67-5.51c-1.11-1.3-2.64-1.96-4.59-1.96
			c-0.72,0-1.27,0.08-1.64,0.23c-0.38,0.15-0.64,0.43-0.79,0.83c-0.15,0.41-0.23,1.04-0.23,1.91v20.56
			C14.79,35.6,14.9,36.3,15.13,36.73z"/>
		<path d="M39.2,37.05c-2.18-1.3-3.85-3.07-5.04-5.31c-1.19-2.23-1.78-4.67-1.78-7.31c0-3.09,0.78-5.74,2.34-7.94
			c1.56-2.21,3.56-3.86,6.01-4.97c2.44-1.11,4.94-1.67,7.49-1.67c2.85,0,5.35,0.67,7.52,2s3.82,3.1,4.97,5.29
			c1.15,2.19,1.73,4.52,1.73,6.97c0,2.73-0.72,5.24-2.16,7.52c-1.44,2.28-3.37,4.08-5.78,5.4c-2.42,1.32-5.03,1.98-7.85,1.98
			C43.86,39.01,41.37,38.36,39.2,37.05z M53.01,36.46c1.42-0.97,2.55-2.41,3.38-4.3c0.82-1.89,1.24-4.14,1.24-6.75
			c0-2.76-0.46-5.24-1.37-7.42c-0.92-2.19-2.22-3.9-3.92-5.13c-1.7-1.23-3.68-1.84-5.96-1.84c-2.91,0-5.17,1.04-6.77,3.13
			c-1.61,2.08-2.41,4.97-2.41,8.66c0,2.85,0.47,5.43,1.42,7.74c0.94,2.31,2.25,4.12,3.92,5.42c1.67,1.3,3.55,1.96,5.65,1.96
			C49.98,37.93,51.59,37.44,53.01,36.46z"/>
		<path d="M86.83,31.36c0.09,0,0.17,0.02,0.25,0.07c0.07,0.05,0.11,0.08,0.11,0.11c-0.3,2.28-0.45,4.36-0.45,6.25
			c0,0.24-0.05,0.41-0.14,0.52s-0.27,0.16-0.54,0.16H66.54c-0.09,0-0.14-0.09-0.14-0.27c0-0.18,0.04-0.27,0.14-0.27
			c1.02,0,1.76-0.07,2.23-0.22c0.46-0.15,0.78-0.44,0.94-0.88c0.16-0.43,0.25-1.1,0.25-2V13.99c0-0.9-0.08-1.56-0.25-1.98
			c-0.17-0.42-0.49-0.71-0.97-0.88c-0.48-0.16-1.22-0.25-2.21-0.25c-0.09,0-0.14-0.09-0.14-0.27c0-0.18,0.04-0.27,0.14-0.27h18.72
			c0.3,0,0.45,0.13,0.45,0.41l0.09,5.85c0,0.06-0.08,0.11-0.25,0.13c-0.17,0.03-0.26,0-0.29-0.09c-0.72-3.42-2.81-5.13-6.25-5.13
			h-1.8c-1.08,0-1.85,0.2-2.3,0.58c-0.45,0.39-0.67,1.05-0.67,1.98v9.18h4.32c3.3,0,4.95-1.11,4.95-3.33c0-0.09,0.08-0.13,0.25-0.13
			c0.16,0,0.25,0.04,0.25,0.13l-0.04,3.92L84,25.96c0.06,0.96,0.09,1.74,0.09,2.34c0,0.06-0.09,0.09-0.27,0.09
			c-0.18,0-0.27-0.03-0.27-0.09c0-2.58-1.68-3.87-5.04-3.87h-4.27v10.21c0,0.99,0.19,1.68,0.56,2.07c0.38,0.39,1.04,0.58,2,0.58H79
			c4.02,0,6.57-1.95,7.65-5.85C86.65,31.39,86.71,31.36,86.83,31.36z"/>
		<path d="M97.47,18.06c0.55,0.85,1.25,1.6,2.07,2.23s1.94,1.38,3.35,2.25c1.53,0.96,2.74,1.79,3.62,2.47
			c0.88,0.69,1.63,1.54,2.25,2.54s0.92,2.18,0.92,3.53c0,1.53-0.4,2.9-1.19,4.09c-0.79,1.2-1.92,2.14-3.38,2.81
			s-3.11,1.01-4.97,1.01c-1.26,0-2.56-0.17-3.89-0.5s-2.35-0.73-3.04-1.21c-0.27-0.18-0.42-0.46-0.45-0.86L92.5,29.6v-0.04
			c0-0.12,0.07-0.19,0.22-0.2c0.15-0.01,0.24,0.04,0.27,0.16c0.99,2.49,2.12,4.53,3.4,6.12c1.28,1.59,2.9,2.38,4.88,2.38
			c1.29,0,2.37-0.35,3.24-1.06c0.87-0.7,1.3-1.88,1.3-3.53c0-1.32-0.29-2.47-0.88-3.46s-1.3-1.81-2.16-2.48
			c-0.86-0.66-2.02-1.47-3.49-2.43c-1.44-0.93-2.57-1.72-3.38-2.36c-0.81-0.64-1.5-1.44-2.07-2.38C93.28,19.36,93,18.26,93,17
			c0-1.56,0.43-2.88,1.3-3.96c0.87-1.08,2-1.88,3.4-2.41c1.4-0.53,2.86-0.79,4.39-0.79c1.02,0,2.04,0.1,3.06,0.29
			c1.02,0.2,1.88,0.44,2.57,0.74c0.27,0.09,0.45,0.2,0.54,0.34c0.09,0.13,0.13,0.31,0.13,0.52l0.13,6.12c0,0.09-0.08,0.16-0.25,0.2
			c-0.17,0.04-0.26,0.01-0.29-0.11c-0.6-1.83-1.4-3.49-2.41-4.97c-1-1.49-2.51-2.23-4.52-2.23c-1.35,0-2.42,0.39-3.22,1.17
			s-1.19,1.84-1.19,3.19C96.64,16.22,96.92,17.2,97.47,18.06z"/>
		<path d="M122.11,36.85c0.15,0.42,0.46,0.71,0.92,0.86c0.46,0.15,1.21,0.22,2.23,0.22c0.09,0,0.14,0.09,0.14,0.27
			c0,0.18-0.04,0.27-0.14,0.27c-0.96,0-1.72-0.01-2.29-0.04l-3.33-0.04l-3.24,0.04c-0.57,0.03-1.35,0.04-2.34,0.04
			c-0.09,0-0.13-0.09-0.13-0.27c0-0.18,0.04-0.27,0.13-0.27c1.02,0,1.76-0.07,2.23-0.22c0.46-0.15,0.79-0.44,0.97-0.88
			c0.18-0.43,0.27-1.1,0.27-2V13.99c0-0.9-0.09-1.56-0.27-1.98c-0.18-0.42-0.5-0.71-0.97-0.88c-0.47-0.16-1.21-0.25-2.23-0.25
			c-0.09,0-0.13-0.09-0.13-0.27c0-0.18,0.04-0.27,0.13-0.27l2.34,0.04c1.32,0.06,2.4,0.09,3.24,0.09c0.93,0,2.05-0.03,3.38-0.09
			l2.25-0.04c0.09,0,0.14,0.09,0.14,0.27c0,0.18-0.04,0.27-0.14,0.27c-0.99,0-1.72,0.09-2.18,0.27c-0.47,0.18-0.78,0.49-0.95,0.92
			c-0.17,0.44-0.25,1.1-0.25,2v20.75C121.89,35.75,121.96,36.43,122.11,36.85z M115.23,7.96c-0.12,0-0.2-0.07-0.22-0.2
			c-0.03-0.13,0-0.23,0.09-0.29c0.96-0.57,2.28-1.51,3.96-2.83c1.38-1.05,2.13-1.62,2.25-1.71c0.15-0.12,0.63-0.06,1.44,0.18
			c0.81,0.24,1.52,0.51,2.14,0.81c0.61,0.3,0.76,0.48,0.43,0.54c-1.86,0.45-3.56,0.95-5.11,1.51c-1.54,0.56-3.17,1.21-4.88,1.96
			L115.23,7.96z"/>
		<path d="M159.55,38.2c0,0.18-0.08,0.27-0.22,0.27c-0.57,0-1.49-0.03-2.75-0.09c-1.26-0.06-2.18-0.09-2.75-0.09
			c-0.75,0-1.64,0.03-2.66,0.09c-1.02,0.06-1.82,0.09-2.38,0.09c-0.12,0-0.18-0.09-0.18-0.27c0-0.18,0.06-0.27,0.18-0.27
			c0.87,0,1.51-0.1,1.91-0.29c0.4-0.2,0.61-0.52,0.61-0.97s-0.26-1.21-0.77-2.29l-4.86-9.86h-8.15l-3.46,7.79
			c-0.39,0.9-0.58,1.71-0.58,2.43c0,1.05,0.38,1.85,1.12,2.39c0.75,0.54,1.8,0.81,3.15,0.81c0.15,0,0.22,0.09,0.22,0.27
			c0,0.18-0.08,0.27-0.22,0.27c-0.54,0-1.32-0.03-2.34-0.09c-1.14-0.06-2.13-0.09-2.97-0.09c-0.81,0-1.75,0.03-2.83,0.09
			c-0.96,0.06-1.75,0.09-2.38,0.09c-0.15,0-0.23-0.09-0.23-0.27c0-0.18,0.08-0.27,0.23-0.27c0.84,0,1.54-0.16,2.12-0.5
			c0.57-0.33,1.12-0.92,1.67-1.78s1.18-2.12,1.93-3.8l9.67-21.78c0.06-0.09,0.2-0.14,0.41-0.14c0.21,0,0.33,0.04,0.36,0.14
			l11.02,22.23c1.05,2.16,1.93,3.64,2.63,4.43c0.7,0.79,1.46,1.19,2.27,1.19C159.48,37.93,159.55,38.02,159.55,38.2z M138.04,23.39
			h7.11l-3.74-7.56L138.04,23.39z"/>
	</g>
	<g>
		<path d="M178.8,44.12c0.14-0.07,0.25-0.2,0.31-0.4c0.06-0.2,0.09-0.51,0.09-0.94c0-0.03,0.03-0.04,0.09-0.04
			c0.06,0,0.09,0.01,0.09,0.04c0,0.41,0,0.73-0.01,0.96l-0.02,1.31l0.02,1.09c0.01,0.2,0.01,0.47,0.01,0.81
			c0,0.03-0.03,0.04-0.09,0.04c-0.06,0-0.09-0.02-0.09-0.04c0-0.32-0.03-0.55-0.08-0.7c-0.05-0.15-0.15-0.24-0.29-0.29
			c-0.14-0.05-0.37-0.08-0.67-0.08h-6.95c-0.3,0-0.52,0.03-0.66,0.08c-0.14,0.05-0.24,0.15-0.29,0.3c-0.05,0.15-0.08,0.38-0.08,0.69
			c0,0.03-0.03,0.04-0.09,0.04c-0.06,0-0.09-0.02-0.09-0.04l0.01-0.79c0.02-0.46,0.03-0.83,0.03-1.1c0-0.24-0.01-0.52-0.04-0.85
			c-0.01-0.13-0.02-0.29-0.03-0.5c-0.01-0.2-0.01-0.43-0.01-0.69c0-1.02,0.21-1.83,0.64-2.42c0.42-0.59,1.08-0.89,1.97-0.89
			c0.62,0,1.14,0.16,1.57,0.48c0.43,0.32,0.76,0.73,0.98,1.24s0.33,1.02,0.33,1.55c0,0.27-0.03,0.51-0.08,0.71
			c0,0.02-0.03,0.03-0.08,0.03c-0.03,0-0.06-0.01-0.09-0.02c-0.03-0.01-0.04-0.03-0.03-0.05c0.04-0.15,0.06-0.32,0.06-0.51
			c0-0.46-0.21-0.84-0.65-1.15c-0.43-0.31-1.04-0.46-1.83-0.46s-1.4,0.17-1.83,0.5c-0.43,0.33-0.64,0.82-0.64,1.46
			c0,0.28,0.07,0.47,0.2,0.57c0.13,0.1,0.38,0.15,0.76,0.15h6.85C178.42,44.23,178.66,44.19,178.8,44.12z"/>
		<path d="M179.29,28.34c0.06,0,0.09,0.03,0.09,0.08c0,0.2-0.01,0.51-0.03,0.93c-0.02,0.44-0.03,0.76-0.03,0.95
			c0,0.25,0.01,0.55,0.03,0.92c0.02,0.34,0.03,0.61,0.03,0.81c0,0.04-0.03,0.06-0.09,0.06c-0.06,0-0.09-0.02-0.09-0.06
			c0-0.26-0.03-0.45-0.08-0.56c-0.05-0.12-0.15-0.17-0.29-0.17c-0.17,0-0.46,0.1-0.86,0.3l-3.08,1.56v2.67l2.36,1.06
			c0.29,0.13,0.56,0.19,0.81,0.19c0.36,0,0.64-0.13,0.84-0.38c0.2-0.25,0.3-0.6,0.3-1.03c0-0.05,0.03-0.08,0.09-0.08
			c0.06,0,0.09,0.02,0.09,0.08c0,0.18-0.01,0.44-0.03,0.78c-0.02,0.38-0.03,0.71-0.03,0.99c0,0.27,0.01,0.6,0.03,0.98
			c0.02,0.34,0.03,0.62,0.03,0.83c0,0.04-0.03,0.06-0.09,0.06c-0.06,0-0.09-0.02-0.09-0.06c0-0.28-0.06-0.52-0.17-0.71
			s-0.32-0.38-0.62-0.57s-0.73-0.42-1.31-0.68l-7.15-3.25c-0.03-0.02-0.05-0.06-0.05-0.13c0-0.08,0.02-0.12,0.05-0.14l7.38-3.75
			c0.71-0.35,1.2-0.64,1.47-0.87c0.27-0.23,0.41-0.47,0.41-0.72C179.2,28.37,179.23,28.34,179.29,28.34z M174.47,35.62v-2.26
			l-2.37,1.2L174.47,35.62z"/>
		<path d="M179.29,17.78c0.06,0,0.09,0.01,0.09,0.03v2.67c0,0.22-0.41,0.63-1.24,1.23c-0.83,0.6-1.98,1.33-3.46,2.18
			c0.01,0.08,0.02,0.19,0.02,0.34c0,0.39,0,0.67-0.02,0.83h3.48c0.31,0,0.54-0.02,0.67-0.08c0.14-0.05,0.24-0.15,0.29-0.29
			c0.05-0.14,0.08-0.38,0.08-0.7c0-0.02,0.03-0.03,0.09-0.03c0.06,0,0.09,0.01,0.09,0.03c0,0.33,0,0.59-0.01,0.78l-0.02,1.14
			l0.02,1.1c0.01,0.2,0.01,0.47,0.01,0.81c0,0.03-0.03,0.05-0.09,0.05c-0.06,0-0.09-0.02-0.09-0.05c0-0.32-0.03-0.55-0.08-0.7
			s-0.15-0.25-0.29-0.3c-0.14-0.06-0.37-0.08-0.67-0.08h-6.95c-0.3,0-0.52,0.02-0.66,0.07c-0.14,0.05-0.24,0.15-0.29,0.3
			c-0.05,0.15-0.08,0.38-0.08,0.69c0,0.02-0.03,0.03-0.09,0.03c-0.06,0-0.09-0.01-0.09-0.03l0.01-0.79c0.02-0.46,0.03-0.83,0.03-1.1
			c0-0.29-0.01-0.61-0.04-0.96c-0.01-0.11-0.02-0.25-0.03-0.43c-0.01-0.17-0.01-0.38-0.01-0.62c0-0.92,0.17-1.63,0.5-2.14
			c0.34-0.5,0.8-0.76,1.4-0.76c0.46,0,0.9,0.14,1.32,0.42s0.76,0.65,1.02,1.09c1.26-0.8,2.25-1.47,2.96-2.02
			c0.71-0.54,1.23-1.03,1.55-1.45c0.33-0.43,0.49-0.84,0.49-1.24C179.2,17.79,179.23,17.78,179.29,17.78z M174.31,24.19
			c0-0.36-0.05-0.65-0.17-0.85c-0.11-0.21-0.3-0.36-0.57-0.46c-0.27-0.09-0.65-0.14-1.14-0.14c-0.82,0-1.38,0.12-1.69,0.36
			c-0.31,0.24-0.47,0.58-0.47,1.03c0,0.34,0.08,0.58,0.23,0.72c0.15,0.14,0.4,0.21,0.75,0.21h3
			C174.29,24.82,174.31,24.53,174.31,24.19z"/>
		<path d="M179.29,7.13c0.06,0,0.09,0.03,0.09,0.08c0,0.2-0.01,0.51-0.03,0.93c-0.02,0.44-0.03,0.76-0.03,0.95
			c0,0.25,0.01,0.55,0.03,0.92c0.02,0.34,0.03,0.61,0.03,0.81c0,0.04-0.03,0.06-0.09,0.06c-0.06,0-0.09-0.02-0.09-0.06
			c0-0.26-0.03-0.45-0.08-0.56c-0.05-0.12-0.15-0.17-0.29-0.17c-0.17,0-0.46,0.1-0.86,0.3l-3.08,1.56v2.67l2.36,1.06
			c0.29,0.13,0.56,0.19,0.81,0.19c0.36,0,0.64-0.13,0.84-0.38c0.2-0.25,0.3-0.6,0.3-1.03c0-0.05,0.03-0.08,0.09-0.08
			c0.06,0,0.09,0.02,0.09,0.08c0,0.18-0.01,0.44-0.03,0.78c-0.02,0.38-0.03,0.71-0.03,0.99c0,0.27,0.01,0.6,0.03,0.98
			c0.02,0.34,0.03,0.62,0.03,0.83c0,0.04-0.03,0.06-0.09,0.06c-0.06,0-0.09-0.02-0.09-0.06c0-0.28-0.06-0.52-0.17-0.71
			s-0.32-0.38-0.62-0.57s-0.73-0.42-1.31-0.68l-7.15-3.25c-0.03-0.02-0.05-0.06-0.05-0.13c0-0.08,0.02-0.12,0.05-0.14l7.38-3.75
			c0.71-0.35,1.2-0.64,1.47-0.87c0.27-0.23,0.41-0.47,0.41-0.72C179.2,7.16,179.23,7.13,179.29,7.13z M174.47,14.41v-2.26l-2.37,1.2
			L174.47,14.41z"/>
	</g>
	<line class="st1" x1="5.38" y1="45.97" x2="157.22" y2="45.97"/>
	<line class="st1" x1="3.38" y1="80.47" x2="183.38" y2="80.47"/>
	<g>
		<path d="M11.12,72.49c-0.23-0.02-0.52-0.03-0.87-0.05c-0.35-0.01-0.75-0.02-1.2-0.02l-1.63,0.02c-0.29,0.02-0.7,0.02-1.22,0.02
			c-0.03,0-0.05-0.05-0.05-0.14c0-0.09,0.02-0.14,0.05-0.14c0.52,0,0.9-0.04,1.14-0.11c0.24-0.08,0.4-0.23,0.49-0.45
			c0.09-0.22,0.14-0.56,0.14-1.02V59.96c0-0.46-0.04-0.8-0.13-1.01c-0.08-0.21-0.25-0.36-0.49-0.45c-0.25-0.08-0.62-0.13-1.13-0.13
			c-0.03,0-0.05-0.05-0.05-0.14c0-0.09,0.02-0.14,0.05-0.14l1.22,0.02c0.67,0.03,1.21,0.05,1.61,0.05c0.61,0,1.23-0.02,1.86-0.07
			c0.77-0.03,1.28-0.05,1.54-0.05c1.56,0,2.95,0.31,4.16,0.92s2.15,1.45,2.82,2.51c0.67,1.06,1,2.25,1,3.57
			c0,1.49-0.35,2.8-1.04,3.94s-1.62,2.02-2.78,2.64c-1.17,0.62-2.45,0.93-3.84,0.93C12.3,72.56,11.75,72.54,11.12,72.49z
			 M15.36,71.34c0.82-0.51,1.46-1.25,1.92-2.24c0.46-0.99,0.69-2.17,0.69-3.55c0-1.32-0.22-2.51-0.66-3.58
			c-0.44-1.07-1.05-1.91-1.85-2.53s-1.73-0.93-2.78-0.93c-0.64,0-1.14,0.04-1.5,0.12c-0.35,0.08-0.61,0.22-0.77,0.42
			s-0.24,0.53-0.24,0.96v10.35c0,0.63,0.16,1.08,0.48,1.35c0.32,0.27,0.95,0.4,1.89,0.4C13.6,72.1,14.54,71.85,15.36,71.34z"/>
		<path d="M26.69,71.64c0.08,0.21,0.23,0.36,0.47,0.44c0.24,0.08,0.62,0.11,1.14,0.11c0.05,0,0.07,0.05,0.07,0.14
			c0,0.09-0.02,0.14-0.07,0.14c-0.49,0-0.88-0.01-1.17-0.02l-1.7-0.02l-1.66,0.02c-0.29,0.02-0.69,0.02-1.2,0.02
			c-0.05,0-0.07-0.05-0.07-0.14c0-0.09,0.02-0.14,0.07-0.14c0.52,0,0.9-0.04,1.14-0.11c0.24-0.08,0.4-0.23,0.49-0.45
			c0.09-0.22,0.14-0.56,0.14-1.02V59.96c0-0.46-0.05-0.8-0.14-1.01c-0.09-0.21-0.26-0.36-0.49-0.45c-0.24-0.08-0.62-0.13-1.14-0.13
			c-0.05,0-0.07-0.05-0.07-0.14c0-0.09,0.02-0.14,0.07-0.14l1.2,0.02c0.67,0.03,1.23,0.05,1.66,0.05c0.48,0,1.05-0.02,1.73-0.05
			l1.15-0.02c0.05,0,0.07,0.05,0.07,0.14c0,0.09-0.02,0.14-0.07,0.14c-0.51,0-0.88,0.05-1.12,0.14c-0.24,0.09-0.4,0.25-0.48,0.47
			c-0.08,0.22-0.13,0.56-0.13,1.02v10.6C26.57,71.08,26.61,71.42,26.69,71.64z M23.17,56.87c-0.06,0-0.1-0.04-0.11-0.1
			c-0.02-0.07,0-0.12,0.05-0.15c0.49-0.29,1.17-0.77,2.02-1.45c0.71-0.54,1.09-0.83,1.15-0.87c0.08-0.06,0.32-0.03,0.74,0.09
			c0.41,0.12,0.78,0.26,1.09,0.41c0.31,0.15,0.39,0.25,0.22,0.28c-0.95,0.23-1.82,0.49-2.61,0.77c-0.79,0.28-1.62,0.62-2.5,1
			L23.17,56.87z"/>
		<path d="M45.82,72.33c0,0.09-0.04,0.14-0.11,0.14c-0.29,0-0.76-0.01-1.4-0.05c-0.64-0.03-1.11-0.05-1.4-0.05
			c-0.38,0-0.84,0.02-1.36,0.05c-0.52,0.03-0.93,0.05-1.22,0.05c-0.06,0-0.09-0.05-0.09-0.14c0-0.09,0.03-0.14,0.09-0.14
			c0.44,0,0.77-0.05,0.98-0.15c0.21-0.1,0.31-0.26,0.31-0.49c0-0.23-0.13-0.62-0.39-1.17l-2.48-5.04h-4.16l-1.77,3.98
			c-0.2,0.46-0.3,0.87-0.3,1.24c0,0.54,0.19,0.94,0.58,1.22c0.38,0.28,0.92,0.41,1.61,0.41c0.08,0,0.12,0.05,0.12,0.14
			c0,0.09-0.04,0.14-0.12,0.14c-0.28,0-0.67-0.01-1.2-0.05c-0.58-0.03-1.09-0.05-1.52-0.05c-0.41,0-0.9,0.02-1.45,0.05
			c-0.49,0.03-0.9,0.05-1.22,0.05c-0.08,0-0.12-0.05-0.12-0.14c0-0.09,0.04-0.14,0.12-0.14c0.43,0,0.79-0.08,1.08-0.25
			c0.29-0.17,0.57-0.47,0.85-0.91c0.28-0.44,0.61-1.08,0.99-1.94l4.94-11.13c0.03-0.05,0.1-0.07,0.21-0.07s0.17,0.02,0.18,0.07
			l5.64,11.36c0.54,1.1,0.98,1.86,1.35,2.27s0.75,0.61,1.16,0.61C45.79,72.19,45.82,72.24,45.82,72.33z M34.83,64.76h3.63
			l-1.91-3.86L34.83,64.76z"/>
		<path d="M49.91,62.04c0.28,0.44,0.64,0.82,1.06,1.14s0.99,0.71,1.71,1.15c0.78,0.49,1.4,0.91,1.85,1.26s0.84,0.79,1.15,1.3
			c0.31,0.51,0.47,1.12,0.47,1.8c0,0.78-0.2,1.48-0.61,2.09s-0.98,1.09-1.73,1.44c-0.74,0.34-1.59,0.52-2.54,0.52
			c-0.64,0-1.31-0.08-1.99-0.25c-0.68-0.17-1.2-0.38-1.55-0.62c-0.14-0.09-0.21-0.24-0.23-0.44l-0.14-3.5v-0.02
			c0-0.06,0.04-0.1,0.12-0.1s0.12,0.02,0.14,0.08c0.51,1.27,1.08,2.32,1.74,3.13c0.65,0.81,1.48,1.22,2.5,1.22
			c0.66,0,1.21-0.18,1.66-0.54s0.67-0.96,0.67-1.81c0-0.67-0.15-1.26-0.45-1.77c-0.3-0.51-0.67-0.93-1.1-1.27
			c-0.44-0.34-1.03-0.75-1.78-1.24c-0.74-0.48-1.31-0.88-1.73-1.21c-0.41-0.33-0.77-0.74-1.06-1.22c-0.29-0.48-0.44-1.05-0.44-1.69
			c0-0.8,0.22-1.47,0.67-2.02c0.44-0.55,1.02-0.96,1.74-1.23c0.71-0.27,1.46-0.4,2.24-0.4c0.52,0,1.04,0.05,1.56,0.15
			c0.52,0.1,0.96,0.23,1.31,0.38c0.14,0.05,0.23,0.1,0.28,0.17c0.05,0.07,0.07,0.16,0.07,0.26l0.07,3.13c0,0.05-0.04,0.08-0.13,0.1
			c-0.08,0.02-0.13,0-0.15-0.06c-0.31-0.93-0.72-1.78-1.23-2.54s-1.28-1.14-2.31-1.14c-0.69,0-1.24,0.2-1.64,0.6
			c-0.41,0.4-0.61,0.94-0.61,1.63C49.48,61.1,49.62,61.6,49.91,62.04z"/>
		<path d="M79.29,58.23c0,0.09-0.02,0.14-0.05,0.14c-0.61,0-1.09,0.22-1.43,0.66c-0.34,0.44-0.51,1.06-0.51,1.87v11.89
			c0,0.05-0.04,0.08-0.12,0.09c-0.08,0.01-0.13,0.01-0.16-0.02L66.25,60.32v9.36c0,0.81,0.16,1.43,0.48,1.86
			c0.32,0.43,0.79,0.64,1.4,0.64c0.03,0,0.05,0.05,0.05,0.14c0,0.09-0.02,0.14-0.05,0.14c-0.41,0-0.73-0.01-0.94-0.02l-1.22-0.02
			l-1.36,0.02c-0.25,0.02-0.6,0.02-1.06,0.02c-0.05,0-0.07-0.05-0.07-0.14c0-0.09,0.02-0.14,0.07-0.14c0.66,0,1.17-0.21,1.53-0.64
			c0.36-0.43,0.54-1.05,0.54-1.86V59.61c-0.43-0.46-0.82-0.78-1.16-0.97c-0.34-0.18-0.7-0.28-1.07-0.28c-0.03,0-0.05-0.05-0.05-0.14
			c0-0.09,0.02-0.14,0.05-0.14l0.92,0.02c0.2,0.01,0.48,0.02,0.85,0.02l1.47-0.02c0.18-0.02,0.41-0.02,0.67-0.02
			c0.12,0,0.21,0.03,0.28,0.09c0.06,0.06,0.15,0.18,0.28,0.37c0.26,0.35,0.45,0.6,0.58,0.74l8.26,9.75V60.9
			c0-0.81-0.16-1.44-0.48-1.87c-0.32-0.44-0.78-0.66-1.38-0.66c-0.03,0-0.05-0.05-0.05-0.14c0-0.09,0.02-0.14,0.05-0.14l0.94,0.02
			c0.49,0.03,0.9,0.05,1.22,0.05c0.31,0,0.72-0.02,1.24-0.05l1.01-0.02C79.27,58.09,79.29,58.14,79.29,58.23z"/>
		<path d="M92.18,59.04c-0.36-0.45-0.88-0.67-1.55-0.67c-0.03,0-0.05-0.05-0.05-0.14c0-0.09,0.02-0.14,0.05-0.14l1.06,0.02
			c0.58,0.03,1.04,0.05,1.38,0.05c0.28,0,0.69-0.02,1.24-0.05l1.01-0.02c0.03,0,0.05,0.05,0.05,0.14c0,0.09-0.02,0.14-0.05,0.14
			c-0.6,0-1.06,0.22-1.39,0.67c-0.33,0.44-0.49,1.07-0.49,1.86v6.44c0,1.1-0.23,2.07-0.7,2.89s-1.13,1.45-1.98,1.9
			s-1.84,0.67-2.96,0.67c-1.12,0-2.12-0.22-2.99-0.66c-0.87-0.44-1.55-1.07-2.04-1.89s-0.72-1.78-0.72-2.89v-7.41
			c0-0.46-0.05-0.8-0.14-1.01c-0.09-0.21-0.26-0.36-0.49-0.45c-0.24-0.08-0.61-0.13-1.12-0.13c-0.05,0-0.07-0.05-0.07-0.14
			c0-0.09,0.02-0.14,0.07-0.14l1.2,0.02c0.67,0.03,1.22,0.05,1.63,0.05c0.46,0,1.03-0.02,1.7-0.05l1.15-0.02
			c0.05,0,0.07,0.05,0.07,0.14c0,0.09-0.02,0.14-0.07,0.14c-0.51,0-0.88,0.05-1.12,0.14s-0.4,0.25-0.49,0.47
			c-0.09,0.22-0.14,0.56-0.14,1.02v6.55c0,1.83,0.38,3.19,1.14,4.08c0.76,0.9,1.82,1.34,3.19,1.34c1.3,0,2.32-0.4,3.06-1.21
			c0.74-0.8,1.1-1.94,1.1-3.42V60.9C92.72,60.1,92.54,59.48,92.18,59.04z"/>
		<path d="M106.8,65.66c0.75,0.71,1.13,1.58,1.13,2.62c0,0.8-0.22,1.52-0.66,2.17c-0.44,0.65-1.04,1.17-1.82,1.54
			c-0.78,0.38-1.64,0.56-2.59,0.56c-0.45,0-0.96-0.02-1.54-0.07c-0.2-0.02-0.45-0.03-0.76-0.05c-0.31-0.01-0.65-0.02-1.04-0.02
			l-1.66,0.02c-0.29,0.02-0.69,0.02-1.2,0.02c-0.05,0-0.07-0.05-0.07-0.14c0-0.09,0.02-0.14,0.07-0.14c0.49,0,0.86-0.04,1.1-0.13
			c0.25-0.08,0.42-0.23,0.52-0.45s0.15-0.55,0.15-1.01V59.96c0-0.45-0.05-0.78-0.15-1c-0.1-0.22-0.27-0.38-0.51-0.46
			c-0.24-0.08-0.6-0.13-1.09-0.13c-0.03,0-0.05-0.05-0.05-0.14c0-0.09,0.02-0.14,0.05-0.14l1.2,0.02c0.67,0.03,1.22,0.05,1.63,0.05
			c0.43,0,0.88-0.02,1.36-0.07c0.17-0.01,0.37-0.03,0.61-0.05s0.51-0.02,0.82-0.02c1.37,0,2.41,0.26,3.14,0.79
			c0.73,0.53,1.09,1.26,1.09,2.2c0,0.72-0.24,1.38-0.72,1.98c-0.48,0.6-1.16,1.07-2.04,1.4C105.04,64.53,106.05,64.95,106.8,65.66z
			 M100.92,58.78c-0.18,0.2-0.27,0.61-0.27,1.22v4.37l0.97,0.02c0.9,0,1.59-0.29,2.05-0.89c0.46-0.59,0.69-1.35,0.69-2.29
			c0-0.87-0.21-1.55-0.62-2.02c-0.41-0.47-1.02-0.71-1.82-0.71C101.43,58.48,101.1,58.58,100.92,58.78z M105.6,68.83
			c0-1.17-0.3-2.1-0.91-2.81c-0.61-0.71-1.49-1.06-2.66-1.06c-0.55,0-1.01,0.02-1.38,0.05v5.59c0,0.35,0.05,0.63,0.14,0.83
			s0.27,0.35,0.53,0.45c0.26,0.1,0.65,0.15,1.17,0.15C104.57,72.03,105.6,70.96,105.6,68.83z"/>
		<path d="M113.81,70.51c0,0.41,0.04,0.71,0.1,0.9c0.07,0.18,0.2,0.31,0.4,0.37c0.2,0.06,0.52,0.09,0.97,0.09h1.38
			c1.09,0,2.01-0.3,2.76-0.91c0.75-0.61,1.25-1.42,1.5-2.45c0.01-0.05,0.06-0.07,0.14-0.06s0.11,0.04,0.11,0.08
			c-0.14,1.44-0.21,2.64-0.21,3.59c0,0.12-0.02,0.21-0.07,0.26s-0.14,0.08-0.28,0.08h-10.76c-0.03,0-0.05-0.05-0.05-0.14
			c0-0.09,0.02-0.14,0.05-0.14c0.52,0,0.9-0.04,1.14-0.11c0.24-0.08,0.4-0.23,0.48-0.45c0.08-0.22,0.13-0.56,0.13-1.02V59.96
			c0-0.46-0.04-0.8-0.13-1.01c-0.08-0.21-0.25-0.36-0.5-0.45c-0.25-0.08-0.62-0.13-1.13-0.13c-0.03,0-0.05-0.05-0.05-0.14
			c0-0.09,0.02-0.14,0.05-0.14l1.17,0.02c0.67,0.03,1.23,0.05,1.66,0.05c0.46,0,1.03-0.02,1.7-0.05l1.15-0.02
			c0.05,0,0.07,0.05,0.07,0.14c0,0.09-0.02,0.14-0.07,0.14c-0.51,0-0.88,0.04-1.12,0.13c-0.24,0.08-0.4,0.24-0.48,0.46
			c-0.08,0.22-0.13,0.56-0.13,1.02V70.51z"/>
		<path d="M138.03,72.33c0,0.09-0.04,0.14-0.12,0.14c-0.29,0-0.76-0.01-1.4-0.05c-0.64-0.03-1.11-0.05-1.4-0.05
			c-0.38,0-0.84,0.02-1.36,0.05c-0.52,0.03-0.93,0.05-1.22,0.05c-0.06,0-0.09-0.05-0.09-0.14c0-0.09,0.03-0.14,0.09-0.14
			c0.45,0,0.77-0.05,0.98-0.15c0.21-0.1,0.31-0.26,0.31-0.49c0-0.23-0.13-0.62-0.39-1.17l-2.48-5.04h-4.16l-1.77,3.98
			c-0.2,0.46-0.3,0.87-0.3,1.24c0,0.54,0.19,0.94,0.57,1.22c0.38,0.28,0.92,0.41,1.61,0.41c0.08,0,0.12,0.05,0.12,0.14
			c0,0.09-0.04,0.14-0.12,0.14c-0.28,0-0.67-0.01-1.2-0.05c-0.58-0.03-1.09-0.05-1.52-0.05c-0.41,0-0.9,0.02-1.45,0.05
			c-0.49,0.03-0.9,0.05-1.22,0.05c-0.08,0-0.12-0.05-0.12-0.14c0-0.09,0.04-0.14,0.12-0.14c0.43,0,0.79-0.08,1.08-0.25
			c0.29-0.17,0.58-0.47,0.85-0.91c0.28-0.44,0.61-1.08,0.99-1.94l4.95-11.13c0.03-0.05,0.1-0.07,0.21-0.07
			c0.11,0,0.17,0.02,0.18,0.07l5.63,11.36c0.54,1.1,0.99,1.86,1.35,2.27s0.75,0.61,1.16,0.61
			C137.99,72.19,138.03,72.24,138.03,72.33z M127.04,64.76h3.63l-1.91-3.86L127.04,64.76z"/>
		<path d="M143.57,72.49c-0.23-0.02-0.52-0.03-0.87-0.05c-0.35-0.01-0.75-0.02-1.2-0.02l-1.63,0.02c-0.29,0.02-0.7,0.02-1.22,0.02
			c-0.03,0-0.05-0.05-0.05-0.14c0-0.09,0.01-0.14,0.05-0.14c0.52,0,0.9-0.04,1.14-0.11c0.24-0.08,0.4-0.23,0.5-0.45
			c0.09-0.22,0.14-0.56,0.14-1.02V59.96c0-0.46-0.04-0.8-0.13-1.01c-0.08-0.21-0.25-0.36-0.5-0.45c-0.25-0.08-0.62-0.13-1.13-0.13
			c-0.03,0-0.05-0.05-0.05-0.14c0-0.09,0.02-0.14,0.05-0.14l1.22,0.02c0.67,0.03,1.21,0.05,1.61,0.05c0.61,0,1.23-0.02,1.86-0.07
			c0.77-0.03,1.28-0.05,1.54-0.05c1.56,0,2.95,0.31,4.16,0.92c1.21,0.61,2.15,1.45,2.82,2.51c0.67,1.06,1,2.25,1,3.57
			c0,1.49-0.34,2.8-1.03,3.94c-0.69,1.14-1.62,2.02-2.78,2.64c-1.17,0.62-2.45,0.93-3.84,0.93
			C144.75,72.56,144.2,72.54,143.57,72.49z M147.82,71.34c0.82-0.51,1.46-1.25,1.92-2.24c0.46-0.99,0.69-2.17,0.69-3.55
			c0-1.32-0.22-2.51-0.66-3.58c-0.44-1.07-1.05-1.91-1.85-2.53s-1.72-0.93-2.78-0.93c-0.64,0-1.14,0.04-1.5,0.12
			c-0.35,0.08-0.61,0.22-0.77,0.42c-0.16,0.21-0.24,0.53-0.24,0.96v10.35c0,0.63,0.16,1.08,0.48,1.35c0.32,0.27,0.95,0.4,1.89,0.4
			C146.06,72.1,147,71.85,147.82,71.34z"/>
		<path d="M158.63,71.74c-1.11-0.67-1.97-1.57-2.58-2.71s-0.91-2.39-0.91-3.74c0-1.58,0.4-2.93,1.2-4.06
			c0.8-1.13,1.82-1.97,3.07-2.54c1.25-0.57,2.53-0.85,3.83-0.85c1.46,0,2.74,0.34,3.84,1.02c1.1,0.68,1.95,1.58,2.54,2.7
			c0.59,1.12,0.89,2.31,0.89,3.57c0,1.4-0.37,2.68-1.1,3.84c-0.74,1.17-1.72,2.09-2.96,2.76c-1.23,0.67-2.57,1.01-4.01,1.01
			C161.01,72.74,159.74,72.41,158.63,71.74z M165.69,71.44c0.73-0.5,1.3-1.23,1.72-2.2s0.63-2.12,0.63-3.45
			c0-1.41-0.23-2.68-0.7-3.79s-1.13-1.99-2-2.62s-1.88-0.94-3.05-0.94c-1.49,0-2.64,0.53-3.46,1.6c-0.82,1.07-1.23,2.54-1.23,4.43
			c0,1.46,0.24,2.78,0.72,3.96s1.15,2.1,2,2.77s1.81,1,2.89,1C164.14,72.19,164.96,71.94,165.69,71.44z"/>
		<path d="M175.83,62.04c0.28,0.44,0.64,0.82,1.06,1.14c0.42,0.32,0.99,0.71,1.71,1.15c0.78,0.49,1.4,0.91,1.85,1.26
			s0.84,0.79,1.15,1.3c0.31,0.51,0.47,1.12,0.47,1.8c0,0.78-0.2,1.48-0.61,2.09s-0.98,1.09-1.72,1.44
			c-0.74,0.34-1.59,0.52-2.54,0.52c-0.64,0-1.31-0.08-1.99-0.25c-0.68-0.17-1.2-0.38-1.55-0.62c-0.14-0.09-0.21-0.24-0.23-0.44
			l-0.14-3.5v-0.02c0-0.06,0.04-0.1,0.12-0.1c0.08-0.01,0.12,0.02,0.14,0.08c0.51,1.27,1.08,2.32,1.74,3.13
			c0.65,0.81,1.48,1.22,2.5,1.22c0.66,0,1.21-0.18,1.66-0.54s0.67-0.96,0.67-1.81c0-0.67-0.15-1.26-0.45-1.77s-0.67-0.93-1.1-1.27
			c-0.44-0.34-1.03-0.75-1.78-1.24c-0.74-0.48-1.31-0.88-1.72-1.21c-0.41-0.33-0.77-0.74-1.06-1.22c-0.29-0.48-0.44-1.05-0.44-1.69
			c0-0.8,0.22-1.47,0.67-2.02c0.44-0.55,1.02-0.96,1.74-1.23c0.71-0.27,1.46-0.4,2.24-0.4c0.52,0,1.04,0.05,1.56,0.15
			c0.52,0.1,0.96,0.23,1.31,0.38c0.14,0.05,0.23,0.1,0.28,0.17c0.05,0.07,0.07,0.16,0.07,0.26l0.07,3.13c0,0.05-0.04,0.08-0.13,0.1
			c-0.08,0.02-0.13,0-0.15-0.06c-0.31-0.93-0.72-1.78-1.23-2.54c-0.51-0.76-1.29-1.14-2.31-1.14c-0.69,0-1.24,0.2-1.64,0.6
			c-0.41,0.4-0.61,0.94-0.61,1.63C175.41,61.1,175.55,61.6,175.83,62.04z"/>
	</g>
</g>
</svg>
