<?xml version="1.0" encoding="UTF-8"?>
<svg width="80px" height="29px" viewBox="0 0 80 29" version="1.1" xmlns="http://www.w3.org/2000/svg" xmlns:xlink="http://www.w3.org/1999/xlink">
    <!-- Generator: Sketch 61.2 (89653) - https://sketch.com -->
    <title>virallab</title>
    <desc>Created with Sketch.</desc>
    <g id="Desktop" stroke="none" stroke-width="1" fill="none" fill-rule="evenodd">
        <g id="Inicio-Copy" transform="translate(-647.000000, -2757.000000)" fill="#FFFFFF" fill-rule="nonzero">
            <g id="Group-7" transform="translate(551.000000, 2750.000000)">
                <path d="M99.1826172,30.9160156 C100.500977,30.9160156 102.068359,26.4189453 102.449219,25.1591797 C103.035156,25.7451172 103.826172,26.0087891 104.617188,26.0087891 C106.067383,26.0087891 107.341797,24.9980469 107.341797,24.6757812 C107.341797,24.3681641 106.931641,23.9580078 106.624023,23.9580078 C106.550781,23.9580078 106.492188,23.9873047 106.433594,24.03125 C105.803711,24.6318359 105.012695,25.0419922 104.133789,25.0419922 C103.547852,25.0419922 102.991211,24.8515625 102.698242,24.3388672 C102.830078,23.8847656 102.976562,23.3720703 102.976562,22.9033203 C102.976562,22.0976562 102.463867,21.7167969 102.083008,21.7167969 C101.584961,21.7167969 101.438477,22.3466797 101.438477,22.859375 C101.438477,23.2402344 101.526367,23.6210938 101.672852,23.9726562 C100.691406,27.3417969 99.2705078,29.9345703 98.7871094,29.9345703 C98.7138672,29.9345703 97.7910156,28.1328125 97.7910156,24.3095703 C97.7910156,23.6796875 97.8349609,23.3720703 97.8642578,23.1230469 C97.8789062,23.0791016 97.8789062,23.0351562 97.8789062,22.9912109 C97.8789062,22.625 97.4980469,22.2587891 97.1464844,22.2587891 C97.0439453,22.2587891 96.9707031,22.3027344 96.9414062,22.4052734 C96.8388672,22.8447266 96.8095703,23.2988281 96.8095703,23.7529297 C96.8095703,25.6132812 97.2197266,30.9160156 99.1826172,30.9160156 Z M108.967773,21.5849609 C109.128906,21.5849609 109.1875,21.4824219 109.509766,20.9257812 C109.875977,20.2958984 109.905273,20.3398438 109.905273,20.1787109 C109.905273,19.8564453 109.480469,19.4609375 109.172852,19.4609375 C109.026367,19.4609375 108.967773,19.5634766 108.645508,20.1347656 C108.279297,20.7646484 108.25,20.7060547 108.25,20.8671875 C108.25,21.1894531 108.660156,21.5849609 108.967773,21.5849609 Z M108.147461,27.9863281 C109.832031,27.9863281 114.109375,25.0273438 114.109375,24.7197266 C114.109375,24.4267578 113.699219,24.0019531 113.376953,24.0019531 C113.171875,24.0019531 109.392578,26.9902344 107.649414,26.9902344 L107.59082,26.9902344 C107.473633,26.9902344 107.371094,26.9462891 107.371094,26.375 C107.371094,25.4228516 107.693359,24.4414062 108.118164,23.5917969 C108.147461,23.5478516 108.162109,23.5039062 108.162109,23.4599609 C108.162109,23.1376953 107.737305,22.7421875 107.444336,22.7421875 C106.990234,22.7421875 106.404297,24.8662109 106.404297,25.8623047 C106.404297,27.0048828 107.004883,27.9863281 108.147461,27.9863281 Z M114.431641,29.8027344 C114.53418,26.9462891 115.149414,24.1337891 116.262695,21.5117188 C116.819336,22.8154297 117.859375,23.4013672 118.738281,23.4013672 C118.943359,23.4013672 119.163086,23.3720703 119.368164,23.2988281 C119.485352,23.2548828 119.529297,23.1669922 119.529297,23.0644531 C119.529297,22.7714844 119.133789,22.3320312 118.811523,22.3320312 C118.782227,22.3320312 118.738281,22.3320312 118.708984,22.3466797 C118.547852,22.4052734 118.416016,22.4199219 118.28418,22.4199219 C117.214844,22.4199219 116.936523,21.21875 116.790039,20.1494141 C116.760742,19.9296875 116.379883,19.5195312 116.086914,19.5195312 C115.574219,19.5195312 114.373047,23.5185547 114.211914,24.1191406 C114.109375,23.3427734 113.977539,22.5664062 113.816406,21.8193359 C113.743164,21.4824219 113.391602,21.1894531 113.12793,21.1894531 C112.966797,21.1894531 112.864258,21.3066406 112.864258,21.4677734 C112.864258,21.4677734 113.435547,23.9580078 113.435547,26.6679688 C113.435547,28.1621094 113.259766,29.3486328 113.259766,29.3486328 C113.259766,29.65625 113.699219,30.0517578 113.992188,30.0517578 C114.241211,30.0517578 114.431641,30.0517578 114.431641,29.8027344 Z M124.758789,27.4003906 C125.857422,27.4003906 130.55957,25.0419922 130.55957,24.7197266 C130.55957,24.3974609 130.178711,23.9873047 129.871094,23.9873047 C129.724609,23.9873047 125.359375,26.4042969 124.304688,26.4042969 C124.202148,26.4042969 124.128906,26.1259766 124.128906,25.7158203 C124.128906,25.0712891 124.304688,24.0751953 124.802734,23.2255859 C124.832031,23.1816406 124.84668,23.1376953 124.84668,23.09375 C124.84668,22.7861328 124.436523,22.390625 124.128906,22.390625 L124.084961,22.390625 C123.835938,22.2001953 123.44043,22.1708984 123.103516,22.1708984 C120.583984,22.1708984 118.430664,24.7050781 118.430664,25.9648438 C118.430664,26.6240234 118.987305,27.0927734 119.558594,27.0927734 C120.686523,27.0927734 122.458984,25.203125 123.235352,24.3828125 C123.191406,24.6904297 123.162109,24.96875 123.162109,25.2324219 C123.162109,26.7558594 123.953125,27.4003906 124.758789,27.4003906 Z M119.485352,26.0234375 C119.924805,24.9541016 121.272461,23.6796875 122.620117,23.2988281 C121.301758,24.6757812 120.24707,25.7158203 119.485352,26.0234375 Z M131.204102,31.3554688 C133.079102,31.3554688 138.704102,24.6464844 138.704102,24.5878906 C138.704102,24.2802734 138.308594,23.8701172 138.000977,23.8701172 C137.927734,23.8701172 137.854492,23.8847656 137.810547,23.9433594 C135.876953,25.9794922 132.009766,30.3740234 130.691406,30.3740234 C130.222656,30.3740234 130.178711,29.2314453 130.178711,28.7626953 C130.178711,23.2841797 135.364258,13.8359375 135.364258,13.8359375 C135.364258,13.5283203 134.954102,13.1328125 134.646484,13.1328125 C134.236328,13.1328125 129.197266,22.9472656 129.197266,28.3525391 C129.197266,30.4765625 130.266602,31.3554688 131.204102,31.3554688 Z M145.09082,31.3554688 C146.96582,31.3554688 152.59082,24.6464844 152.59082,24.5878906 C152.59082,24.2802734 152.195312,23.8701172 151.887695,23.8701172 C151.814453,23.8701172 151.741211,23.8847656 151.697266,23.9433594 C149.763672,25.9794922 145.896484,30.3740234 144.578125,30.3740234 C144.109375,30.3740234 144.06543,29.2314453 144.06543,28.7626953 C144.06543,23.2841797 149.250977,13.8359375 149.250977,13.8359375 C149.250977,13.5283203 148.84082,13.1328125 148.533203,13.1328125 C148.123047,13.1328125 143.083984,22.9472656 143.083984,28.3525391 C143.083984,30.4765625 144.15332,31.3554688 145.09082,31.3554688 Z M157.029297,27.4003906 C158.12793,27.4003906 162.830078,25.0419922 162.830078,24.7197266 C162.830078,24.3974609 162.449219,23.9873047 162.141602,23.9873047 C161.995117,23.9873047 157.629883,26.4042969 156.575195,26.4042969 C156.472656,26.4042969 156.399414,26.1259766 156.399414,25.7158203 C156.399414,25.0712891 156.575195,24.0751953 157.073242,23.2255859 C157.102539,23.1816406 157.117188,23.1376953 157.117188,23.09375 C157.117188,22.7861328 156.707031,22.390625 156.399414,22.390625 L156.355469,22.390625 C156.106445,22.2001953 155.710938,22.1708984 155.374023,22.1708984 C152.854492,22.1708984 150.701172,24.7050781 150.701172,25.9648438 C150.701172,26.6240234 151.257812,27.0927734 151.829102,27.0927734 C152.957031,27.0927734 154.729492,25.203125 155.505859,24.3828125 C155.461914,24.6904297 155.432617,24.96875 155.432617,25.2324219 C155.432617,26.7558594 156.223633,27.4003906 157.029297,27.4003906 Z M151.755859,26.0234375 C152.195312,24.9541016 153.542969,23.6796875 154.890625,23.2988281 C153.572266,24.6757812 152.517578,25.7158203 151.755859,26.0234375 Z M165.378906,35.046875 C167.415039,35.046875 169.363281,29.890625 169.84668,27.6347656 C170.974609,26.7998047 172.19043,26.0966797 173.464844,25.5253906 C174.871094,24.9101562 175.046875,25.0273438 175.046875,24.7490234 C175.046875,24.4414062 174.636719,24.0019531 174.314453,24.0019531 C174.167969,24.0019531 172.161133,24.7050781 170.081055,26.0380859 C170.095703,25.8623047 170.095703,25.6865234 170.095703,25.5107422 C170.095703,23.1962891 168.879883,22.1416016 167.605469,22.1416016 C165.613281,22.1416016 163.75293,25.0273438 162.786133,26.7998047 C164.016602,16.2236328 167.532227,7.84472656 167.532227,7.84472656 C167.532227,7.52246094 167.107422,7.11230469 166.814453,7.11230469 C165.90625,7.11230469 161.49707,23.1083984 161.49707,29.7587891 C161.49707,30.0664062 161.96582,30.4619141 162.244141,30.4619141 C162.463867,30.4619141 162.463867,30.2421875 162.478516,30.1396484 C162.507812,30.0810547 165.334961,23.1230469 168.030273,23.1230469 C169.026367,23.1230469 169.128906,24.0019531 169.128906,25.0126953 C169.128906,25.6132812 169.041016,26.2431641 168.923828,26.84375 C167.063477,28.2207031 163.972656,31.2529297 163.972656,33.3769531 C163.972656,34.4023438 164.675781,35.046875 165.378906,35.046875 Z M164.998047,34.0654297 L164.983398,34.0654297 C164.939453,34.0654297 164.924805,34.0507812 164.924805,33.8310547 C164.924805,32.2783203 167.166016,29.8759766 168.411133,28.7773438 C167.415039,31.7802734 165.833008,34.0654297 164.998047,34.0654297 Z" id="virallab"></path>
            </g>
        </g>
    </g>
</svg>